<svg xmlns="http://www.w3.org/2000/svg" version="1.1" xmlns:xlink="http://www.w3.org/1999/xlink" xmlns:svgjs="http://svgjs.dev/svgjs" width="1000" height="641" viewBox="0 0 1000 641"><g transform="matrix(1,0,0,1,0.4556777155826808,0.25951417004046107)"><svg viewBox="0 0 385 247" data-background-color="#282634" preserveAspectRatio="xMidYMid meet" height="641" width="1000" xmlns="http://www.w3.org/2000/svg" xmlns:xlink="http://www.w3.org/1999/xlink"><g id="tight-bounds" transform="matrix(1,0,0,1,-0.175435920499325,-0.09999999999999432)"><svg viewBox="0 0 385.35087184099865 247.2" height="247.2" width="385.35087184099865"><g><svg viewBox="0 0 385.35087184099865 247.2" height="247.2" width="385.35087184099865"><g><svg viewBox="0 0 395.52 253.7234275165786" height="247.2" width="385.35087184099865"><g transform="matrix(1,0,0,1,0,179.63544204131813)"><svg viewBox="0 0 395.52 74.08798547526047" height="74.08798547526047" width="395.52"><g><svg viewBox="0 0 395.52 74.08798547526047" height="74.08798547526047" width="395.52"><g><svg viewBox="0 0 395.52 39.95951917572983" height="39.95951917572983" width="395.52"><g transform="matrix(1,0,0,1,0,0)"><svg width="395.52" viewBox="4.599999904632568 -34.79999923706055 349.3800048828125 35.29999923706055" height="39.95951917572983" data-palette-color="#ff4057"><path d="M4.6 0L4.6-34.3 15.6-34.3Q21.75-34.3 25.33-30.58 28.9-26.85 28.9-17.8L28.9-17.8 28.9-16.55Q28.9-7.55 25.3-3.78 21.7 0 15.6 0L15.6 0 4.6 0ZM15.6-2.4Q20.5-2.4 23.35-5.45 26.2-8.5 26.2-16.1L26.2-16.1 26.2-18.25Q26.2-31.9 15.6-31.9L15.6-31.9 7.3-31.9 7.3-2.4 15.6-2.4ZM60.05 0L38.35 0 38.35-34.3 59.55-34.3 59.05-31.9 41.05-31.9 41.05-18.7 57-18.7 57-16.3 41.05-16.3 41.05-2.4 59.5-2.4 60.05 0ZM78.1-4.3L89.35-34.3 92-34.3 79.05 0 76.65 0 63.65-34.3 66.6-34.3 77.85-4.3 78.1-4.3ZM119.84 0L98.14 0 98.14-34.3 119.34-34.3 118.84-31.9 100.84-31.9 100.84-18.7 116.79-18.7 116.79-16.3 100.84-16.3 100.84-2.4 119.29-2.4 119.84 0ZM148.09 0L127.79 0 127.79-34.3 130.49-34.3 130.49-2.4 147.49-2.4 148.09 0ZM166.34 0.5Q160.09 0.5 156.56-3.23 153.04-6.95 153.04-16.5L153.04-16.5 153.04-17.8Q153.04-27.35 156.56-31.08 160.09-34.8 166.34-34.8L166.34-34.8Q172.59-34.8 176.11-31.08 179.64-27.35 179.64-17.8L179.64-17.8 179.64-16.5Q179.64-6.95 176.11-3.23 172.59 0.5 166.34 0.5L166.34 0.5ZM166.34-1.9Q171.29-1.9 174.11-4.95 176.94-8 176.94-15.9L176.94-15.9 176.94-18.4Q176.94-26.3 174.11-29.35 171.29-32.4 166.34-32.4L166.34-32.4Q161.39-32.4 158.56-29.35 155.74-26.3 155.74-18.4L155.74-18.4 155.74-15.9Q155.74-8 158.56-4.95 161.39-1.9 166.34-1.9L166.34-1.9ZM189.09 0L189.09-34.3 203.14-34.3Q205.69-34.3 207.84-33.05 209.99-31.8 211.24-29.65 212.49-27.5 212.49-24.95L212.49-24.95Q212.49-22.4 211.24-20.25 209.99-18.1 207.84-16.85 205.69-15.6 203.14-15.6L203.14-15.6 191.79-15.6 191.79 0 189.09 0ZM202.79-17.95Q204.69-17.95 206.34-18.88 207.99-19.8 208.94-21.43 209.89-23.05 209.89-24.95L209.89-24.95Q209.89-26.85 208.94-28.45 207.99-30.05 206.34-30.98 204.69-31.9 202.79-31.9L202.79-31.9 191.79-31.9 191.79-17.95 202.79-17.95ZM255.83 0L253.13 0 253.13-31.25 252.88-31.25 239.13 0 236.58 0 222.93-31.25 222.68-31.25 222.68 0 220.28 0 220.28-34.3 224.58-34.3 237.98-3.45 238.03-3.45 251.58-34.3 255.83-34.3 255.83 0ZM288.88 0L267.18 0 267.18-34.3 288.38-34.3 287.88-31.9 269.88-31.9 269.88-18.7 285.83-18.7 285.83-16.3 269.88-16.3 269.88-2.4 288.33-2.4 288.88 0ZM320.78 0L318.38 0 299.38-29.15 299.23-29.15 299.23 0 296.83 0 296.83-34.3 299.13-34.3 318.23-5.15 318.38-5.15 318.38-34.3 320.78-34.3 320.78 0ZM353.98-31.9L342.38-31.9 342.38 0 339.78 0 339.78-31.9 328.18-31.9 328.18-34.3 353.98-34.3 353.98-31.9Z" opacity="1" transform="matrix(1,0,0,1,0,0)" fill="#ff4057" class="undefined-text-0" data-fill-palette-color="primary" id="text-0"></path></svg></g></svg></g><g transform="matrix(1,0,0,1,107.60062691552218,49.39300262465943)"><svg viewBox="0 0 180.3187461689556 24.694982850601036" height="24.694982850601036" width="180.3187461689556"><g transform="matrix(1,0,0,1,0,0)"><svg width="180.3187461689556" viewBox="5.199999809265137 -37.599998474121094 278.17999267578125 38.099998474121094" height="24.694982850601036" data-palette-color="#dcdcdc"><path d="M5.2-36.5L5.2-36.5Q5.2-37.1 5.75-37.1L5.75-37.1 27.5-37.1Q27.95-37.1 27.95-36.65L27.95-36.65 27.9-34.6Q27.9-34.1 27.4-34.1L27.4-34.1 9.55-34.1Q8.95-34.1 8.95-33.55L8.95-33.55 8.95-20.7Q8.95-20.2 9.5-20.2L9.5-20.2 23.05-20.2Q23.5-20.2 23.5-19.75L23.5-19.75 23.5-17.65Q23.5-17.45 23.43-17.35 23.35-17.25 23.05-17.25L23.05-17.25 9.45-17.25Q8.95-17.25 8.95-16.75L8.95-16.75 8.95-3.5Q8.95-3 9.45-3L9.45-3 28.1-3Q28.65-3 28.65-2.55L28.65-2.55 28.65-0.45Q28.65-0.25 28.53-0.13 28.4 0 28.15 0L28.15 0 5.8 0Q5.2 0 5.2-0.6L5.2-0.6 5.2-36.5ZM36.95-37.1L36.95-37.1Q37.2-37.1 38.17-37.1 39.15-37.1 40.35-37.08 41.55-37.05 42.55-37.05 43.55-37.05 43.9-37.05L43.9-37.05Q50.85-37 55.12-34.93 59.4-32.85 61.37-28.85 63.35-24.85 63.35-18.9L63.35-18.9Q63.35-12.5 61.17-8.3 59-4.1 54.57-2.05 50.15 0 43.3 0L43.3 0 36.9 0Q36.3 0 36.3-0.65L36.3-0.65 36.3-36.5Q36.3-36.8 36.45-36.95 36.6-37.1 36.95-37.1L36.95-37.1ZM40.55-34.1L40.55-34.1Q40.05-34.1 40.05-33.4L40.05-33.4 40.05-3.45Q40.05-2.95 40.65-2.95L40.65-2.95 42.8-2.95Q48.7-2.95 52.35-4.48 56-6 57.7-9.45 59.4-12.9 59.4-18.55L59.4-18.55Q59.4-24.65 57.62-28 55.85-31.35 52.22-32.73 48.6-34.1 43-34.1L43-34.1 40.55-34.1ZM97.4-12L97.4-12Q97.4-7.75 95.95-4.95 94.5-2.15 91.59-0.83 88.7 0.5 84.45 0.5L84.45 0.5Q79.95 0.5 77.09-0.95 74.25-2.4 72.87-5.35 71.5-8.3 71.5-12.8L71.5-12.8 71.5-36.45Q71.5-37.1 72-37.1L72-37.1 74.7-37.1Q75.3-37.1 75.3-36.5L75.3-36.5 75.3-11.8Q75.3-7.15 77.65-4.85 80-2.55 84.7-2.55L84.7-2.55Q87.8-2.55 89.92-3.58 92.05-4.6 93.12-6.68 94.2-8.75 94.2-11.95L94.2-11.95 94.2-36.55Q94.2-37.1 94.7-37.1L94.7-37.1 96.9-37.1Q97.4-37.1 97.4-36.55L97.4-36.55 97.4-12ZM120.94-37.6L120.94-37.6Q123.34-37.6 125.62-36.8 127.89-36 129.72-34.6 131.54-33.2 132.72-31.38 133.89-29.55 134.14-27.5L134.14-27.5Q134.19-27.2 134.14-27.08 134.09-26.95 133.79-26.95L133.79-26.95 130.89-26.7Q130.69-26.65 130.59-26.78 130.49-26.9 130.44-27.15L130.44-27.15Q129.64-30.45 127.14-32.52 124.64-34.6 121.04-34.6L121.04-34.6Q115.49-34.6 112.52-30.53 109.54-26.45 109.54-18.45L109.54-18.45Q109.54-10.7 112.49-6.65 115.44-2.6 121.39-2.6L121.39-2.6Q125.04-2.6 127.49-4.38 129.94-6.15 131.44-10L131.44-10Q131.54-10.2 131.89-10.15L131.89-10.15 134.34-9.5Q134.44-9.45 134.52-9.35 134.59-9.25 134.54-8.95L134.54-8.95Q134.09-7.45 133.24-6.05 132.39-4.65 131.19-3.45 129.99-2.25 128.44-1.35 126.89-0.45 125.07 0.03 123.24 0.5 121.14 0.5L121.14 0.5Q116.29 0.5 112.79-1.78 109.29-4.05 107.44-8.3 105.59-12.55 105.59-18.5L105.59-18.5Q105.59-24.5 107.44-28.78 109.29-33.05 112.72-35.33 116.14-37.6 120.94-37.6L120.94-37.6ZM138.94 0L138.94 0Q138.69 0 138.56-0.2 138.44-0.4 138.54-0.7L138.54-0.7 151.59-36.45Q151.74-36.8 151.94-36.95 152.14-37.1 152.49-37.1L152.49-37.1 155.49-37.1Q156.34-37.1 156.54-36.45L156.54-36.45 169.44-0.7Q169.59-0.45 169.44-0.23 169.29 0 168.99 0L168.99 0 166.44 0Q165.84 0 165.69-0.45L165.69-0.45 161.99-10.75Q161.94-10.95 161.84-11.05 161.74-11.15 161.44-11.15L161.44-11.15 146.24-11.15Q145.84-11.15 145.69-10.75L145.69-10.75 141.89-0.4Q141.84-0.2 141.69-0.1 141.54 0 141.24 0L141.24 0 138.94 0ZM147.19-14.2L160.34-14.2Q160.89-14.2 160.69-14.75L160.69-14.75 154.24-32.5Q154.04-32.95 153.87-32.95 153.69-32.95 153.49-32.45L153.49-32.45 146.94-14.7Q146.74-14.2 147.19-14.2L147.19-14.2ZM168.94-34.55L168.94-36.6Q168.94-36.85 169.04-36.98 169.14-37.1 169.44-37.1L169.44-37.1 195.84-37.1Q196.14-37.1 196.24-36.98 196.34-36.85 196.34-36.6L196.34-36.6 196.34-34.55Q196.34-34.1 195.84-34.1L195.84-34.1 185.49-34.1Q184.94-34.1 184.94-33.65L184.94-33.65 184.94-0.6Q184.94 0 184.44 0L184.44 0 181.74 0Q181.19 0 181.19-0.6L181.19-0.6 181.19-33.65Q181.19-34.1 180.69-34.1L180.69-34.1 169.44-34.1Q168.94-34.1 168.94-34.55L168.94-34.55ZM204.29-37.1L206.99-37.1Q207.49-37.1 207.49-36.5L207.49-36.5 207.49-0.75Q207.49-0.3 207.34-0.15 207.19 0 206.74 0L206.74 0 204.44 0Q203.99 0 203.86-0.13 203.74-0.25 203.74-0.6L203.74-0.6 203.74-36.5Q203.74-37.1 204.29-37.1L204.29-37.1ZM231.73 0.5L231.73 0.5Q226.88 0.5 223.41-1.68 219.93-3.85 218.06-8.08 216.18-12.3 216.18-18.35L216.18-18.35Q216.18-24.55 218.08-28.85 219.98-33.15 223.48-35.38 226.98-37.6 231.78-37.6L231.78-37.6Q236.58-37.6 240.03-35.38 243.48-33.15 245.36-28.9 247.23-24.65 247.23-18.45L247.23-18.45Q247.23-12.35 245.38-8.13 243.53-3.9 240.03-1.7 236.53 0.5 231.73 0.5L231.73 0.5ZM231.83-2.55L231.83-2.55Q237.53-2.55 240.41-6.45 243.28-10.35 243.28-18.45L243.28-18.45Q243.28-26.65 240.36-30.63 237.43-34.6 231.78-34.6L231.78-34.6Q226.03-34.6 223.08-30.6 220.13-26.6 220.13-18.45L220.13-18.45Q220.13-10.35 223.11-6.45 226.08-2.55 231.83-2.55L231.83-2.55ZM280.58-37.1L282.88-37.1Q283.38-37.1 283.38-36.55L283.38-36.55 283.38-0.55Q283.38-0.3 283.26-0.15 283.13 0 282.83 0L282.83 0 281.08 0Q280.78 0 280.53-0.05 280.28-0.1 280.08-0.35L280.08-0.35 259.93-29.85Q259.68-30.2 259.51-30.15 259.33-30.1 259.33-29.8L259.33-29.8 259.33-0.55Q259.33 0 258.73 0L258.73 0 256.58 0Q255.98 0 255.98-0.6L255.98-0.6 255.98-36.5Q255.98-37.1 256.53-37.1L256.53-37.1 258.63-37.1Q258.98-37.1 259.16-37.02 259.33-36.95 259.53-36.65L259.53-36.65 279.33-7.55Q279.63-7.2 279.86-7.3 280.08-7.4 280.08-7.7L280.08-7.7 280.08-36.55Q280.08-37.1 280.58-37.1L280.58-37.1Z" opacity="1" transform="matrix(1,0,0,1,0,0)" fill="#dcdcdc" class="undefined-text-1" data-fill-palette-color="secondary" id="text-1"></path></svg></g></svg></g></svg></g></svg></g><g transform="matrix(1,0,0,1,112.65902070380572,0)"><svg viewBox="0 0 170.20195859238854 170.20195859238854" height="170.20195859238854" width="170.20195859238854"><g><svg></svg></g><g id="icon-0"><svg viewBox="0 0 170.20195859238854 170.20195859238854" height="170.20195859238854" width="170.20195859238854"><g><rect width="154.7577067941903" height="154.7577067941903" x="7.722125899099112" y="7.722125899099112" fill="#dcdcdc" data-fill-palette-color="accent"></rect><rect width="154.7577067941903" height="154.7577067941903" x="3.552713678800501e-15" y="15.44425179819822" fill="#dcdcdc" opacity="0.5" data-fill-palette-color="accent"></rect></g><g transform="matrix(1,0,0,1,22.063216854568886,28.89976964209459)"><svg viewBox="0 0 126.07552488325076 112.40241930819936" height="112.40241930819936" width="126.07552488325076"><g><svg xmlns="http://www.w3.org/2000/svg" xmlns:xlink="http://www.w3.org/1999/xlink" version="1.0" x="0" y="0" viewBox="23 27 55 49.03515625" enable-background="new 0 0 100 100" xml:space="preserve" height="112.40241930819936" width="126.07552488325076" class="icon-c-0" data-fill-palette-color="background" id="c-0"><g fill="#282634" data-fill-palette-color="background"><g fill="#282634" data-fill-palette-color="background"><path d="M77 27H24c-0.552 0-1 0.448-1 1v37c0 0.552 0.448 1 1 1h25v8.035H34.892c-0.552 0-1 0.448-1 1s0.448 1 1 1h30.216c0.552 0 1-0.448 1-1s-0.448-1-1-1H51V66h26c0.552 0 1-0.448 1-1V28C78 27.448 77.552 27 77 27zM76 29v4H25v-4H76zM25 64V35h51v29H25z" fill="#282634" data-fill-palette-color="background"></path><circle cx="28" cy="31" r="1.0" fill="#282634" data-fill-palette-color="background"></circle><path d="M65.121 48.21l1.469-2.544-1.732-1-1.522 2.635h-4.003l-1.47-2.544-1.732 1 1.521 2.635-2.002 3.468h-2.938v2h3.043l2.002 3.468-1.468 2.545 1.732 1 1.521-2.636h4.004l1.47 2.545 1.732-1-1.521-2.636 2.002-3.468h2.938v-2h-3.043L65.121 48.21zM63.442 56.237h-4.005l-2.002-3.468 2.002-3.468h4.005l2.002 3.468L63.442 56.237z" fill="#282634" data-fill-palette-color="background"></path><circle cx="61.4394531" cy="52.769043" r="1.1" fill="#282634" data-fill-palette-color="background"></circle><circle cx="42.2539063" cy="48.8530273" r="1.5" fill="#282634" data-fill-palette-color="background"></circle><path d="M54.42 49.853v-2h-2.99l-3.722-6.446 1.496-2.591-1.733-1-1.495 2.591h-7.443l-1.496-2.591-1.732 1 1.495 2.591-3.722 6.446h-2.991v2h2.991l3.722 6.446-1.495 2.591 1.732 1 1.496-2.591h7.443l1.495 2.591 1.733-1-1.496-2.591 3.722-6.446H54.42zM45.976 55.299h-7.444l-3.721-6.446 3.721-6.446h7.444l3.721 6.446L45.976 55.299z" fill="#282634" data-fill-palette-color="background"></path></g></g></svg></g></svg></g></svg></g></svg></g><g></g></svg></g></svg></g><defs></defs></svg><rect width="385.35087184099865" height="247.2" fill="none" stroke="none" visibility="hidden"></rect></g></svg></g></svg>