<svg width="357" height="316" viewBox="0 0 357 316" fill="none" xmlns="http://www.w3.org/2000/svg">
<path d="M32.1733 28.9333L31.1056 30.001C-9.72772 70.8343 -9.74372 137.058 31.0587 177.854L162.537 309.338C171.319 318.12 185.485 318.14 194.287 309.338L325.765 177.854C366.604 137.021 366.599 70.8757 325.719 30.001L324.651 28.9333C286.755 -8.96271 225.323 -8.93071 187.371 29.0166L181.001 35.3864C179.574 36.8134 177.241 36.8134 175.814 35.3864L169.449 29.0166C131.528 -8.90071 70.0331 -8.93138 32.1691 28.9333H32.1733ZM165.261 45.9493C172.517 53.1993 184.303 53.2097 191.564 45.9493L197.934 39.5796C230.054 7.45955 282.032 7.43424 314.09 39.491L315.163 40.5639C350.209 75.6053 350.215 132.299 315.21 167.304L183.726 298.788C180.767 301.746 176.054 301.741 173.1 298.788L41.6164 167.304C6.64711 132.335 6.6631 75.5639 41.6633 40.5639L42.7362 39.491C74.7629 7.46436 126.804 7.49101 158.892 39.5796L165.261 45.9493Z" fill="black"/>
</svg>
