<svg width="701" height="654" viewBox="0 0 701 654" fill="none" xmlns="http://www.w3.org/2000/svg">
<path d="M630.667 186.973H607.333V70.328C607.313 51.7707 599.932 33.9733 586.807 20.8547C573.687 7.7296 555.889 0.349336 537.333 0.328003H70.6667C52.1093 0.348836 34.312 7.72907 21.1933 20.8547C8.06825 33.9744 0.68799 51.772 0.666656 70.328V460.821C0.671864 466.915 3.06253 472.764 7.32293 477.119C11.5833 481.478 17.3855 483.994 23.4736 484.129C29.5673 484.264 35.4736 482.015 39.9269 477.853L126.536 396.973H187.334V490.328C187.354 508.885 194.735 526.682 207.86 539.801C220.98 552.926 238.778 560.306 257.334 560.328H574.334L660.834 646.822C665.209 651.197 671.141 653.656 677.328 653.656C683.516 653.656 689.448 651.197 693.828 646.822C698.203 642.447 700.662 636.515 700.662 630.328V256.968C700.641 238.405 693.261 220.613 680.135 207.489C667.015 194.369 649.218 186.984 630.662 186.968L630.667 186.973ZM117.333 350.307C111.417 350.307 105.724 352.562 101.407 356.604L47.3333 407.088V70.3276C47.3385 64.1401 49.7969 58.2079 54.1719 53.8329C58.5468 49.458 64.4792 46.9996 70.6665 46.9944H537.333C543.521 46.9996 549.453 49.458 553.828 53.8329C558.203 58.2079 560.661 64.1403 560.666 70.3276V326.968C560.661 333.15 558.203 339.082 553.828 343.457C549.453 347.832 543.521 350.29 537.333 350.301L117.333 350.307ZM654 574L600.495 520.5C596.12 516.12 590.187 513.661 584 513.661H257.333C251.146 513.656 245.214 511.198 240.839 506.823C236.464 502.448 234.005 496.516 234 490.328V396.974H537.333C555.891 396.953 573.688 389.567 586.807 376.447C599.932 363.322 607.312 345.53 607.334 326.974V233.64H630.667C636.854 233.645 642.787 236.104 647.161 240.479C651.531 244.854 653.995 250.786 654 256.973V574Z" fill="black"/>
</svg>
