<svg width="641" height="732" viewBox="0 0 641 732" fill="none" xmlns="http://www.w3.org/2000/svg">
<path d="M110.627 511.76H216.288V123.76C216.288 115.651 221.934 108.864 229.481 107.093L619.174 1.276C628.289 -1.2084 637.721 4.18747 640.205 13.3281C640.606 14.8281 640.788 16.3281 640.809 17.8073V483.794C640.809 514.081 628.423 541.606 608.486 561.57C588.528 581.529 560.997 593.893 530.71 593.893H500.872C470.585 593.893 443.06 581.507 423.096 561.57C403.137 541.611 390.773 514.081 390.773 483.794C390.773 453.487 403.158 425.955 423.096 406.018C443.054 386.059 470.585 373.695 500.872 373.695H606.533V188.669L250.573 285.325V621.885C250.573 652.171 238.187 679.697 218.229 699.661C198.292 719.619 170.765 731.983 140.453 731.983H110.614C80.3275 731.983 52.8022 719.598 32.8382 699.661C12.8795 679.702 0.515503 652.171 0.515503 621.885C0.515503 591.578 12.901 564.046 32.8382 544.109C52.7968 524.15 80.3275 511.786 110.614 511.786L110.627 511.76ZM606.547 483.869V407.957H500.885C480.052 407.957 461.104 416.494 447.349 430.244C433.595 443.999 425.063 462.947 425.063 483.78C425.063 504.613 433.599 523.561 447.349 537.316C461.104 551.071 480.052 559.603 500.885 559.603H530.724C551.557 559.603 570.505 551.066 584.26 537.316C597.989 523.587 606.525 504.68 606.547 483.868V483.869ZM606.547 40.216L250.587 136.872V249.793L606.547 153.137V40.1947V40.216ZM216.307 546.056H110.645C89.812 546.056 70.864 554.592 57.1093 568.343C43.3547 582.097 34.8227 601.045 34.8227 621.879C34.8227 642.712 43.3591 661.66 57.1093 675.415C70.864 689.169 89.812 697.701 110.645 697.701H140.484C161.317 697.701 180.265 689.165 194.02 675.415C207.775 661.66 216.307 642.712 216.307 621.879V546.056Z" fill="black"/>
</svg>
