<svg width="747" height="747" viewBox="0 0 747 747" fill="none" xmlns="http://www.w3.org/2000/svg">
<path d="M514.44 181.16H549.153C558.112 181.16 566.236 185.03 572.117 191.259C577.893 197.384 581.482 205.8 581.482 215.035V531.622C581.482 540.856 577.893 549.278 572.117 555.398C566.237 561.627 558.112 565.497 549.153 565.497H514.44C510.852 565.497 507.945 562.59 507.945 559.002V187.655C507.945 184.067 510.852 181.16 514.44 181.16V181.16ZM549.153 194.15H520.935V552.51H549.153C554.403 552.51 559.195 550.218 562.68 546.52C566.269 542.718 568.493 537.447 568.493 531.624V215.037C568.493 209.214 566.269 203.938 562.68 200.141C559.196 196.449 554.404 194.152 549.153 194.152V194.15Z" fill="black"/>
<path d="M172.347 175.733H488.2C491.789 175.733 494.695 178.64 494.695 182.228V560.748C494.695 563.363 493.148 565.618 490.919 566.649C488.487 567.983 485.888 569.035 483.153 569.759C480.299 570.514 477.341 570.915 474.335 570.915H200.522C190.981 570.915 182.314 567.019 176.033 560.738C169.752 554.457 165.856 545.79 165.856 536.248V182.222C165.856 178.633 168.762 175.727 172.351 175.727L172.347 175.733ZM481.707 188.723H178.84V536.243C178.84 542.201 181.283 547.618 185.215 551.55C189.147 555.482 194.564 557.925 200.522 557.925H474.335C476.278 557.925 478.127 557.68 479.856 557.221C480.486 557.055 481.101 556.862 481.705 556.638L481.707 188.723Z" fill="black"/>
<path d="M216.24 234.827C212.651 234.827 209.745 237.733 209.745 241.321C209.745 244.91 212.651 247.816 216.24 247.816H444.293C447.882 247.816 450.788 244.91 450.788 241.321C450.788 237.733 447.882 234.827 444.293 234.827H216.24Z" fill="black"/>
<path d="M216.24 299.413C212.651 299.413 209.745 302.32 209.745 305.908C209.745 309.497 212.651 312.403 216.24 312.403H444.293C447.882 312.403 450.788 309.497 450.788 305.908C450.788 302.32 447.882 299.413 444.293 299.413H216.24Z" fill="black"/>
<path d="M216.24 364C212.651 364 209.745 366.906 209.745 370.495C209.745 374.083 212.651 376.99 216.24 376.99H444.293C447.882 376.99 450.788 374.083 450.788 370.495C450.788 366.906 447.882 364 444.293 364H216.24Z" fill="black"/>
<path d="M216.24 364C212.651 364 209.745 366.906 209.745 370.495C209.745 374.083 212.651 376.99 216.24 376.99H444.293C447.882 376.99 450.788 374.083 450.788 370.495C450.788 366.906 447.882 364 444.293 364H216.24Z" fill="black"/>
<path d="M378.453 428.573C374.865 428.573 371.958 431.48 371.958 435.068C371.958 438.657 374.865 441.563 378.453 441.563H444.303C447.891 441.563 450.797 438.657 450.797 435.068C450.797 431.48 447.891 428.573 444.303 428.573H378.453Z" fill="black"/>
<path d="M378.453 460.867C374.865 460.867 371.958 463.773 371.958 467.361C371.958 470.95 374.865 473.856 378.453 473.856H444.303C447.891 473.856 450.797 470.95 450.797 467.361C450.797 463.773 447.891 460.867 444.303 460.867H378.453Z" fill="black"/>
<path d="M378.453 493.16C374.865 493.16 371.958 496.066 371.958 499.655C371.958 503.243 374.865 506.15 378.453 506.15H444.303C447.891 506.15 450.797 503.243 450.797 499.655C450.797 496.066 447.891 493.16 444.303 493.16H378.453Z" fill="black"/>
<path d="M226.08 423.893H304.788C308.377 423.893 311.283 426.8 311.283 430.388V505.352C311.283 508.941 308.377 511.847 304.788 511.847H226.08C222.491 511.847 219.585 508.941 219.585 505.352V430.388C219.585 426.8 222.491 423.893 226.08 423.893ZM298.299 436.883H232.575V498.856H298.299V436.883Z" fill="black"/>
<path fill-rule="evenodd" clip-rule="evenodd" d="M373.667 0C579.853 0 747 167.147 747 373.333C747 579.52 579.853 746.667 373.667 746.667C167.48 746.667 0.333374 579.52 0.333374 373.333C0.333374 167.147 167.48 0 373.667 0ZM373.667 18.2293C569.787 18.2293 728.773 177.216 728.773 373.336C728.773 569.456 569.787 728.443 373.667 728.443C177.547 728.443 18.56 569.456 18.56 373.336C18.56 177.216 177.547 18.2293 373.667 18.2293V18.2293Z" fill="black"/>
</svg>
