<svg width="518" height="690" viewBox="0 0 518 690" fill="none" xmlns="http://www.w3.org/2000/svg">
<path d="M373.528 15.2856V115.793C373.528 131.653 386.387 144.512 402.247 144.512H502.755" stroke="black" stroke-width="28.7173" stroke-miterlimit="10"/>
<path d="M43.2786 675.015C27.4194 675.015 14.5598 662.156 14.5598 646.296V44.0073C14.5598 28.1481 27.4189 15.2885 43.2786 15.2885H361.625C369.239 15.2885 376.546 18.3144 381.932 23.6998L494.336 136.104C499.727 141.494 502.752 148.796 502.752 156.411V633.794C502.752 656.768 484.118 675.387 461.144 675.366L43.2786 675.015Z" stroke="black" stroke-width="28.7173" stroke-miterlimit="10"/>
<path d="M71.9961 302.249C71.9961 260.266 86.3082 216.568 119.021 197.971C149.53 180.623 169.998 211.981 201.223 211.981C231.857 211.981 252.914 180.622 282.148 196.883C315.518 215.44 330.455 259.648 330.455 302.251L71.9961 302.249Z" stroke="black" stroke-width="28.7173" stroke-miterlimit="10"/>
<path d="M239.992 113.054C239.992 135.443 222.633 153.594 201.223 153.594C179.811 153.594 162.458 135.443 162.458 113.054C162.458 90.6643 179.812 72.5078 201.223 72.5078C222.634 72.5078 239.992 90.6643 239.992 113.054Z" stroke="black" stroke-width="28.7173" stroke-miterlimit="10"/>
<path d="M115.072 417.119H402.245" stroke="black" stroke-width="28.7173" stroke-miterlimit="10"/>
<path d="M115.072 560.705H402.245" stroke="black" stroke-width="28.7173" stroke-miterlimit="10"/>
<path d="M115.072 488.912H402.245" stroke="black" stroke-width="28.7173" stroke-miterlimit="10"/>
</svg>
