<svg width="508" height="508" viewBox="0 0 508 508" fill="none" xmlns="http://www.w3.org/2000/svg">
<path d="M359.48 186.669C359.48 245.06 312.141 292.399 253.751 292.399C195.36 292.399 148.021 245.06 148.021 186.669C148.021 128.279 195.36 80.9399 253.751 80.9399C312.141 80.9399 359.48 128.279 359.48 186.669" fill="black"/>
<path d="M253.747 0C113.747 0 0 113.459 0 253.747C0 393.747 113.459 507.493 253.747 507.493C394.035 507.493 507.493 394.035 507.493 253.747C507.493 113.747 393.744 0 253.747 0V0ZM424.667 411.693V403.964C424.667 354.672 384.563 314.423 335.125 314.423H170.485C121.193 314.423 80.944 354.527 80.944 403.964V410.235C43.4653 368.964 20.5693 314.131 20.5693 253.755C20.5693 125.276 124.84 21.0083 253.316 21.0083C381.792 21.0083 486.209 125.279 486.209 253.755C486.501 314.859 463.313 370.13 424.668 411.688L424.667 411.693Z" fill="black"/>
</svg>
